HIERARCHY
ROOT Cow_ROOTSHJnt
{
	OFFSET 0.000000 104.418205 -66.749687
	CHANNELS 6 Xposition Yposition Zposition Xrotation Yrotation Zrotation
	JOINT Cow_Spine_01SHJnt
	{
		OFFSET 0.000000 -0.645172 20.599144
		CHANNELS 3 Xrotation Yrotation Zrotation
		JOINT Cow_Spine_02SHJnt
		{
			OFFSET -0.000000 -0.659470 20.593332
			CHANNELS 3 Xrotation Yrotation Zrotation
			JOINT Cow_Spine_03SHJnt
			{
				OFFSET -0.000000 -0.983315 20.606550
				CHANNELS 3 Xrotation Yrotation Zrotation
				JOINT Cow_Spine_04SHJnt
				{
					OFFSET -0.000000 1.374176 20.599676
					CHANNELS 3 Xrotation Yrotation Zrotation
					JOINT Cow_Spine_TopSHJnt
					{
						OFFSET -0.000000 0.913788 20.599678
						CHANNELS 3 Xrotation Yrotation Zrotation
						JOINT Cow_l_Clavicle_01_01SHJnt
						{
							OFFSET 11.171912 0.000000 0.000000
							CHANNELS 3 Xrotation Yrotation Zrotation
							JOINT Cow_l_FrontLeg_HipSHJnt
							{
								OFFSET 7.976342 -13.093445 4.953094
								CHANNELS 3 Xrotation Yrotation Zrotation
								JOINT Cow_l_FrontLeg_Knee1SHJnt
								{
									OFFSET 0.000006 -54.085663 3.929428
									CHANNELS 3 Xrotation Yrotation Zrotation
									JOINT Cow_l_FrontLeg_Knee2SHJnt
									{
										OFFSET 0.000000 -22.377888 -1.964962
										CHANNELS 3 Xrotation Yrotation Zrotation
										JOINT Cow_l_FrontLeg_AnkleSHJnt
										{
											OFFSET 0.000000 -5.827117 0.663101
											CHANNELS 3 Xrotation Yrotation Zrotation
											JOINT Cow_l_FrontLeg_BallSHJnt
											{
												OFFSET 0.000006 -9.033521 5.970051
												CHANNELS 3 Xrotation Yrotation Zrotation
												JOINT Cow_l_FrontLeg_ToeSHJnt
												{
													OFFSET 0.000006 -0.000236 7.439106
													CHANNELS 3 Xrotation Yrotation Zrotation
													End Site
													{
														OFFSET 7.439106 0.000000 -0.000004
													}
												}
											}
										}
									}
								}
							}
						}
						JOINT Cow_r_Clavicle_01_01SHJnt
						{
							OFFSET -11.171912 0.000000 0.000000
							CHANNELS 3 Xrotation Yrotation Zrotation
							JOINT Cow_r_FrontLeg_HipSHJnt
							{
								OFFSET -7.976342 -13.093445 4.953094
								CHANNELS 3 Xrotation Yrotation Zrotation
								JOINT Cow_r_FrontLeg_Knee1SHJnt
								{
									OFFSET 0.000006 -54.085663 3.929428
									CHANNELS 3 Xrotation Yrotation Zrotation
									JOINT Cow_r_FrontLeg_Knee2SHJnt
									{
										OFFSET 0.000000 -22.377888 -1.964962
										CHANNELS 3 Xrotation Yrotation Zrotation
										JOINT Cow_r_FrontLeg_AnkleSHJnt
										{
											OFFSET 0.000000 -5.827118 0.663101
											CHANNELS 3 Xrotation Yrotation Zrotation
											JOINT Cow_r_FrontLeg_BallSHJnt
											{
												OFFSET 0.000006 -9.033521 5.970051
												CHANNELS 3 Xrotation Yrotation Zrotation
												JOINT Cow_r_FrontLeg_ToeSHJnt
												{
													OFFSET 0.000006 -0.000236 7.439106
													CHANNELS 3 Xrotation Yrotation Zrotation
													End Site
													{
														OFFSET 7.439106 0.000000 -0.000004
													}
												}
											}
										}
									}
								}
							}
						}
						JOINT Cow_Neck_01SHJnt
						{
							OFFSET 0.000000 -3.042931 25.141075
							CHANNELS 3 Xrotation Yrotation Zrotation
							JOINT Cow_Neck_02SHJnt
							{
								OFFSET -0.000000 5.198975 19.440189
								CHANNELS 3 Xrotation Yrotation Zrotation
								JOINT Cow_Neck_TopSHJnt
								{
									OFFSET -0.000000 2.823219 15.102203
									CHANNELS 3 Xrotation Yrotation Zrotation
									JOINT Cow_Head_JawSHJnt
									{
										OFFSET 0.000000 -11.047028 35.995026
										CHANNELS 3 Xrotation Yrotation Zrotation
										JOINT Cow_Head_JawEndSHJnt
										{
											OFFSET 0.000001 -8.004074 14.239838
											CHANNELS 3 Xrotation Yrotation Zrotation
											End Site
											{
												OFFSET 0.000001 -7.802444 14.351303
											}
										}
									}
									JOINT Cow_Head_TopSHJnt
									{
										OFFSET -0.000001 24.239838 27.576538
										CHANNELS 3 Xrotation Yrotation Zrotation
										JOINT Cow_l_Ear_01_01SHJnt
										{
											OFFSET 14.495198 -8.068291 -16.691696
											CHANNELS 3 Xrotation Yrotation Zrotation
											JOINT Cow_l_Ear_01_02SHJnt
											{
												OFFSET 6.722663 1.751846 -2.771584
												CHANNELS 3 Xrotation Yrotation Zrotation
												JOINT Cow_l_Ear_01_03SHJnt
												{
													OFFSET 10.716763 1.540672 0.206581
													CHANNELS 3 Xrotation Yrotation Zrotation
													End Site
													{
														OFFSET 0.679575 -2.729614 10.457191
													}
												}
											}
										}
										JOINT Cow_r_Ear_01_01SHJnt
										{
											OFFSET -14.495194 -8.068298 -16.691696
											CHANNELS 3 Xrotation Yrotation Zrotation
											JOINT Cow_r_Ear_01_02SHJnt
											{
												OFFSET -6.722663 1.751839 -2.771584
												CHANNELS 3 Xrotation Yrotation Zrotation
												JOINT Cow_r_Ear_01_03SHJnt
												{
													OFFSET -10.716763 1.540672 0.206581
													CHANNELS 3 Xrotation Yrotation Zrotation
													End Site
													{
														OFFSET -0.679575 -2.729614 10.457191
													}
												}
											}
										}
									}
								}
							}
							JOINT Cow_NeckSkin_01_01SHJnt
							{
								OFFSET 0.000001 -28.699036 3.570499
								CHANNELS 3 Xrotation Yrotation Zrotation
								JOINT Cow_NeckSkin_01_02SHJnt
								{
									OFFSET 0.000001 -13.726456 3.287460
									CHANNELS 3 Xrotation Yrotation Zrotation
									End Site
									{
										OFFSET 0.000000 3.287460 13.726448
									}
								}
							}
						}
					}
				}
			}
		}
	}
	JOINT Cow_l_HindLeg_HipSHJnt
	{
		OFFSET 22.626928 -17.868790 -3.434631
		CHANNELS 3 Xrotation Yrotation Zrotation
		JOINT Cow_l_HindLeg_Knee1SHJnt
		{
			OFFSET -4.433996 -42.020042 -11.629990
			CHANNELS 3 Xrotation Yrotation Zrotation
			JOINT Cow_l_HindLeg_Knee2SHJnt
			{
				OFFSET 0.572979 -32.422234 5.223465
				CHANNELS 3 Xrotation Yrotation Zrotation
				JOINT Cow_l_HindLeg_AnkleSHJnt
				{
					OFFSET 0.961411 -7.270234 2.095169
					CHANNELS 3 Xrotation Yrotation Zrotation
					JOINT Cow_l_HindLeg_BallSHJnt
					{
						OFFSET 0.000000 -4.836911 3.795708
						CHANNELS 3 Xrotation Yrotation Zrotation
						JOINT Cow_l_HindLeg_ToeSHJnt
						{
							OFFSET 0.000000 0.000000 6.175804
							CHANNELS 3 Xrotation Yrotation Zrotation
							End Site
							{
								OFFSET 6.175808 0.000000 0.000000
							}
						}
					}
				}
			}
		}
	}
	JOINT Cow_r_HindLeg_HipSHJnt
	{
		OFFSET -22.626928 -17.868790 -3.434631
		CHANNELS 3 Xrotation Yrotation Zrotation
		JOINT Cow_r_HindLeg_Knee1SHJnt
		{
			OFFSET 4.434002 -42.020042 -11.629990
			CHANNELS 3 Xrotation Yrotation Zrotation
			JOINT Cow_r_HindLeg_Knee2SHJnt
			{
				OFFSET -0.572975 -32.422234 5.223465
				CHANNELS 3 Xrotation Yrotation Zrotation
				JOINT Cow_r_HindLeg_AnkleSHJnt
				{
					OFFSET -0.961411 -7.270235 2.095169
					CHANNELS 3 Xrotation Yrotation Zrotation
					JOINT Cow_r_HindLeg_BallSHJnt
					{
						OFFSET 0.000000 -4.836911 3.795708
						CHANNELS 3 Xrotation Yrotation Zrotation
						JOINT Cow_r_HindLeg_ToeSHJnt
						{
							OFFSET 0.000000 0.000001 6.175804
							CHANNELS 3 Xrotation Yrotation Zrotation
							End Site
							{
								OFFSET 6.175806 0.000001 0.000000
							}
						}
					}
				}
			}
		}
	}
	JOINT Cow_Tail_01_01SHJnt
	{
		OFFSET 0.000000 23.982246 -20.837936
		CHANNELS 3 Xrotation Yrotation Zrotation
		JOINT Cow_Tail_01_02SHJnt
		{
			OFFSET -0.000000 -11.072281 -7.960037
			CHANNELS 3 Xrotation Yrotation Zrotation
			JOINT Cow_Tail_01_03SHJnt
			{
				OFFSET -0.000000 -14.319481 -2.666931
				CHANNELS 3 Xrotation Yrotation Zrotation
				JOINT Cow_Tail_01_04SHJnt
				{
					OFFSET -0.000000 -14.386604 1.425095
					CHANNELS 3 Xrotation Yrotation Zrotation
					JOINT Cow_Tail_01_05SHJnt
					{
						OFFSET -0.000000 -14.413574 1.119919
						CHANNELS 3 Xrotation Yrotation Zrotation
						JOINT Cow_Tail_01_06SHJnt
						{
							OFFSET -0.000000 -13.741089 -0.772911
							CHANNELS 3 Xrotation Yrotation Zrotation
							JOINT Cow_Tail_01_07SHJnt
							{
								OFFSET -0.000000 -14.118168 -3.111679
								CHANNELS 3 Xrotation Yrotation Zrotation
								End Site
								{
									OFFSET -0.000000 3.111683 -14.118164
								}
							}
						}
					}
				}
			}
		}
	}
	JOINT Cow_Udder_01_01SHJnt
	{
		OFFSET 0.000000 -41.393280 7.188248
		CHANNELS 3 Xrotation Yrotation Zrotation
		JOINT Cow_Udder_01_02SHJnt
		{
			OFFSET 0.000001 -13.240067 -3.137054
			CHANNELS 3 Xrotation Yrotation Zrotation
			End Site
			{
				OFFSET 0.000001 3.137054 -13.240074
			}
		}
	}
}
MOTION
Frames: 4
Frame Time: 0.040000
0.000000 104.418198 -66.749672 -0.000000 0.000000 -0.000000 -0.000000 -0.000000 -0.000000 -0.000007 0.000003 0.000000 -0.000000 -0.000000 -0.000010 -0.000000 0.000000 -0.000000 -0.000000 0.000000 -0.000000 -0.000000 0.000000 -0.000000 0.384266 -0.000014 -0.000003 -0.666838 -0.000003 -0.000001 -2.206691 0.000001 0.000005 2.488532 0.000000 -0.000002 -0.000000 0.000000 -0.000002 0.000000 -0.000000 -0.000000 0.000000 0.000000 -0.000000 0.384266 -0.000014 -0.000003 -0.666838 -0.000003 -0.000001 -2.206691 0.000001 0.000005 2.488532 0.000000 -0.000002 -0.000000 0.000000 -0.000002 0.000000 0.000000 0.000000 -0.000000 0.000007 0.000002 -0.000000 -0.000000 0.000003 -0.000002 -0.000007 0.000004 -23.380053 -0.000006 0.000001 -0.000002 -0.000000 -0.000000 -0.000002 0.000011 -0.000009 -0.000010 -0.000002 -0.000000 0.000001 0.000000 0.000000 0.000003 0.000001 0.000000 -0.000012 0.000002 -0.000000 0.000002 0.000000 -0.000001 -0.000000 -0.000000 -0.000001 -0.000006 -0.000013 0.000003 -0.000000 -0.000002 -0.000007 0.000001 0.000000 0.000001 -0.000000 0.000002 -0.000001 -0.000001 -0.000002 0.000003 -0.000000 0.000001 0.000000 -0.000000 -0.000000 0.000000 -0.000000 -0.000000 -0.000000 0.000002 -0.000003 -0.000001 0.000001 -0.000001 0.000001 0.000007 0.000002 0.000003 0.000002 -0.000002 0.000002 0.000000 0.000000 0.000000 -0.000000 0.000000 0.000000 -0.000000 -0.000000 -0.000000 -0.000000 -0.000000 0.000000 0.000002 0.000000 -0.000000 0.000000 0.000000 -0.000000 -0.000001 0.000000 0.000000 -0.000001 -0.000000 -0.000000 -0.000000 -0.000000 0.000000 -0.000000 -0.000000 -0.000000 -0.000000 -0.000000 0.000000 
0.000000 104.418198 -66.749672 -0.000000 0.000000 -0.000000 -0.000000 -0.000000 -0.000000 -0.000007 0.000003 0.000000 -0.000000 -0.000000 -0.000010 -0.000000 0.000000 -0.000000 -0.000000 0.000000 -0.000000 -0.000000 0.000000 -0.000000 0.384266 -0.000014 -0.000003 -0.666838 -0.000003 -0.000001 -2.206691 0.000001 0.000005 2.488532 0.000000 -0.000002 -0.000000 0.000000 -0.000002 0.000000 -0.000000 -0.000000 0.000000 0.000000 -0.000000 0.384266 -0.000014 -0.000003 -0.666838 -0.000003 -0.000001 -2.206691 0.000001 0.000005 2.488532 0.000000 -0.000002 -0.000000 0.000000 -0.000002 0.000000 0.000000 0.000000 -0.000000 0.000007 0.000002 -0.000000 -0.000000 0.000003 -0.000002 -0.000007 0.000004 -23.380053 -0.000006 0.000001 -0.000002 -0.000000 -0.000000 -0.000002 0.000011 -0.000009 -0.000010 -0.000002 -0.000000 0.000001 0.000000 0.000000 0.000003 0.000001 0.000000 -0.000012 0.000002 -0.000000 0.000002 0.000000 -0.000001 -0.000000 -0.000000 -0.000001 -0.000006 -0.000013 0.000003 -0.000000 -0.000002 -0.000007 0.000001 0.000000 0.000001 -0.000000 0.000002 -0.000001 -0.000001 -0.000002 0.000003 -0.000000 0.000001 0.000000 -0.000000 -0.000000 0.000000 -0.000000 -0.000000 -0.000000 0.000002 -0.000003 -0.000001 0.000001 -0.000001 0.000001 0.000007 0.000002 0.000003 0.000002 -0.000002 0.000002 0.000000 0.000000 0.000000 -0.000000 0.000000 0.000000 -0.000000 -0.000000 -0.000000 -0.000000 -0.000000 0.000000 0.000002 0.000000 -0.000000 0.000000 0.000000 -0.000000 -0.000001 0.000000 0.000000 -0.000001 -0.000000 -0.000000 -0.000000 -0.000000 0.000000 -0.000000 -0.000000 -0.000000 -0.000000 -0.000000 0.000000 
0.000000 103.986908 -67.786774 0.561493 0.000000 -0.000000 -1.527088 0.857008 0.027117 1.042313 -0.561385 -0.007364 0.947755 -0.571607 0.004731 1.033456 -0.571105 0.018655 -1.506138 0.857229 -0.004082 0.000000 0.000000 0.000000 0.496906 0.006332 0.014157 -5.944640 0.000002 0.000003 1.571030 -0.003944 -0.000196 3.372024 -0.002028 -0.014266 0.142652 -0.000061 -0.000087 0.000000 0.000000 0.000000 0.000000 -0.000000 0.000000 -1.888945 0.016133 0.041306 2.224253 -0.000003 -0.000003 -4.260879 -0.011264 -0.000369 3.344924 -0.005905 -0.041188 -0.000000 0.000000 -0.000002 -0.000000 -0.000000 0.000000 0.421964 -0.000001 0.000000 0.914447 -0.000007 -0.000022 0.470294 -0.000009 -0.000004 -23.380053 -0.000006 0.000001 -0.000000 -0.000000 -0.000000 -0.000002 0.000011 -0.000009 -0.528012 3.371233 0.938938 -0.531202 3.376125 0.931016 0.000003 0.000000 0.000001 -0.528011 -3.371235 -0.938933 -0.531199 -3.376124 -0.931014 0.000002 0.000001 0.000001 -0.000002 0.000002 0.000000 -0.000002 -0.000002 -0.000007 -0.220075 0.128277 -0.326253 -2.719461 0.057009 0.766471 1.545751 -0.318487 -0.433479 0.804106 0.105118 -0.004859 -0.000000 0.000000 0.000000 -0.000000 0.000000 0.000000 -0.220074 -0.128277 0.326250 -2.719459 -0.057014 -0.766473 1.545744 0.318484 0.433471 0.804106 -0.105117 0.004861 -0.000000 -0.000000 0.000000 -0.000000 -0.000000 -0.000000 0.372484 0.076856 0.088184 0.372202 0.067465 0.079877 -0.000000 0.000000 -0.000000 -1.717751 -0.196402 -0.069786 -1.717957 -0.196403 -0.069784 -1.718129 -0.196402 -0.069792 -0.000000 0.000000 0.000000 -0.000000 -0.000000 -0.000000 -0.000000 0.000000 0.000000 
0.000000 103.025436 -69.698410 1.607280 0.000000 -0.000000 -4.403497 2.445661 0.195154 3.025708 -1.634712 -0.045364 2.711506 -1.636503 0.038575 2.921854 -1.630250 0.127369 -4.268918 2.453798 -0.006255 -0.000000 0.000000 -0.000000 -1.217026 0.017742 0.041176 -9.164749 0.000003 0.000004 4.065880 -0.010900 -0.000367 5.147291 -0.006333 -0.041024 0.916774 -0.000502 -0.000761 0.000000 0.000000 -0.000000 -0.000000 -0.000000 -0.000000 -5.658129 0.041320 0.121393 5.801799 -0.000001 -0.000006 -6.811027 -0.030876 -0.001224 4.988187 -0.018923 -0.119680 0.000000 -0.000000 -0.000011 0.000000 -0.000000 0.000000 1.447961 -0.000003 -0.000020 3.126599 -0.000037 -0.000117 1.632155 -0.000019 -0.000053 -23.380053 -0.000006 0.000001 -0.000002 -0.000000 -0.000000 -0.000002 0.000011 -0.000009 -1.673734 9.650306 2.806387 -1.684799 9.669061 2.776755 -0.000002 -0.000003 -0.000000 -1.673729 -9.650307 -2.806374 -1.684797 -9.669053 -2.776754 0.000001 -0.000001 0.000001 -0.000003 -0.000020 0.000003 -0.000001 -0.000002 -0.000007 -0.637920 0.370605 -0.953492 -7.916688 0.064589 2.234668 4.433922 -0.968420 -1.250743 2.321195 0.305282 -0.011328 0.000000 0.000000 0.000000 0.000000 -0.000000 -0.000000 -0.637919 -0.370607 0.953478 -7.916688 -0.064589 -2.234666 4.433924 0.968415 1.250743 2.321194 -0.305282 0.011324 -0.000000 -0.000000 0.000000 0.000000 0.000000 0.000000 1.313640 0.267016 0.307640 1.313060 0.242565 0.286047 0.000003 0.000000 -0.000000 -4.061474 -0.473400 -0.170009 -4.061660 -0.473404 -0.170016 -4.061819 -0.473407 -0.170028 0.000001 -0.000000 -0.000000 -0.000001 -0.000000 -0.000000 -0.000001 0.000000 0.000000 
